<?xml version="1.0"?><svg xmlns="http://www.w3.org/2000/svg"  viewBox="0 0 80 80" width="80px" height="80px">    <path d="M 40 7 C 21.786448 7 7 21.786448 7 40 C 7 58.213552 21.786448 73 40 73 C 58.213552 73 73 58.213552 73 40 C 73 21.786448 58.213552 7 40 7 z M 40 9 C 57.132672 9 71 22.867328 71 40 C 71 57.132672 57.132672 71 40 71 C 22.867328 71 9 57.132672 9 40 C 9 22.867328 22.867328 9 40 9 z M 40 12 A 1 1 0 0 0 39 13 A 1 1 0 0 0 40 14 A 1 1 0 0 0 41 13 A 1 1 0 0 0 40 12 z M 34.732422 12.519531 A 1 1 0 0 0 33.732422 13.519531 A 1 1 0 0 0 34.732422 14.519531 A 1 1 0 0 0 35.732422 13.519531 A 1 1 0 0 0 34.732422 12.519531 z M 45.267578 12.519531 A 1 1 0 0 0 44.267578 13.519531 A 1 1 0 0 0 45.267578 14.519531 A 1 1 0 0 0 46.267578 13.519531 A 1 1 0 0 0 45.267578 12.519531 z M 29.667969 14.054688 A 1 1 0 0 0 28.667969 15.054688 A 1 1 0 0 0 29.667969 16.054688 A 1 1 0 0 0 30.667969 15.054688 A 1 1 0 0 0 29.667969 14.054688 z M 50.332031 14.054688 A 1 1 0 0 0 49.332031 15.054688 A 1 1 0 0 0 50.332031 16.054688 A 1 1 0 0 0 51.332031 15.054688 A 1 1 0 0 0 50.332031 14.054688 z M 25 16.550781 A 1 1 0 0 0 24 17.550781 A 1 1 0 0 0 25 18.550781 A 1 1 0 0 0 26 17.550781 A 1 1 0 0 0 25 16.550781 z M 55 16.550781 A 1 1 0 0 0 54 17.550781 A 1 1 0 0 0 55 18.550781 A 1 1 0 0 0 56 17.550781 A 1 1 0 0 0 55 16.550781 z M 20.908203 19.908203 A 1 1 0 0 0 19.908203 20.908203 A 1 1 0 0 0 20.908203 21.908203 A 1 1 0 0 0 21.908203 20.908203 A 1 1 0 0 0 20.908203 19.908203 z M 59.091797 19.908203 A 1 1 0 0 0 58.091797 20.908203 A 1 1 0 0 0 59.091797 21.908203 A 1 1 0 0 0 60.091797 20.908203 A 1 1 0 0 0 59.091797 19.908203 z M 17.550781 24 A 1 1 0 0 0 16.550781 25 A 1 1 0 0 0 17.550781 26 A 1 1 0 0 0 18.550781 25 A 1 1 0 0 0 17.550781 24 z M 62.449219 24 A 1 1 0 0 0 61.449219 25 A 1 1 0 0 0 62.449219 26 A 1 1 0 0 0 63.449219 25 A 1 1 0 0 0 62.449219 24 z M 57.826172 26.072266 L 55.560547 27.416016 C 54.447547 28.076016 53.251047 28.559375 51.998047 28.859375 C 50.674047 27.684375 48.878391 27.089844 46.650391 27.089844 C 42.286391 27.089844 38.996094 30.587141 38.996094 34.994141 C 38.996094 35.200141 39.004391 35.487828 39.025391 35.798828 C 33.675391 35.063828 29.336969 31.420781 26.792969 28.300781 L 25.880859 27.181641 L 25.152344 28.429688 C 24.453344 29.630688 24.083984 31.003344 24.083984 32.402344 C 24.083984 33.864344 24.382359 35.212328 24.943359 36.361328 C 24.779359 36.283328 24.626328 36.204953 24.486328 36.126953 L 23 35.386719 L 23 37.087891 C 23 39.398891 24.208812 41.516344 25.882812 43.027344 L 24.533203 42.771484 L 25.048828 44.373047 C 25.750828 46.563047 28.046141 48.589641 30.619141 49.556641 C 29.005141 50.042641 27.131 50.097656 25 50.097656 C 24.485 50.097656 23.971656 50.067813 23.472656 50.007812 L 19.148438 49.490234 L 23.623047 52.365234 C 26.361047 54.152234 29.190781 56 34.425781 56 C 47.315781 56 55.020531 45.776578 55.019531 35.892578 C 55.019531 35.751578 55.018625 35.611703 55.015625 35.470703 C 56.276625 34.392703 57.170672 32.856797 57.888672 31.466797 L 59.195312 28.939453 L 56.59375 30.09375 C 56.49475 30.13775 56.396875 30.181656 56.296875 30.222656 C 56.593875 29.714656 56.836438 29.165078 57.023438 28.580078 L 57.826172 26.072266 z M 15.054688 28.667969 A 1 1 0 0 0 14.054688 29.667969 A 1 1 0 0 0 15.054688 30.667969 A 1 1 0 0 0 16.054688 29.667969 A 1 1 0 0 0 15.054688 28.667969 z M 64.945312 28.667969 A 1 1 0 0 0 63.945312 29.667969 A 1 1 0 0 0 64.945312 30.667969 A 1 1 0 0 0 65.945312 29.667969 A 1 1 0 0 0 64.945312 28.667969 z M 46.650391 29.091797 C 48.548391 29.091797 49.997984 29.612719 50.958984 30.636719 C 50.958984 30.636719 52.750516 31.938859 52.978516 34.505859 L 53.001953 35.042969 C 53.014953 35.323969 53.019531 35.608578 53.019531 35.892578 C 53.019531 44.670578 46.502781 54 34.425781 54 C 31.056781 54 28.894875 53.190359 26.921875 52.068359 C 29.666875 51.972359 32.125219 51.563453 34.199219 49.939453 L 36.412109 48.203125 L 33.599609 48.152344 C 31.556609 48.115344 29.218672 46.893609 27.888672 45.349609 C 28.956672 45.439609 29.833672 45.390078 30.513672 45.205078 L 34.599609 44.09375 L 30.447266 43.259766 C 28.350266 42.838766 26.057344 40.995063 25.277344 38.664062 C 26.114344 38.971063 27.044594 39.224047 27.808594 39.248047 L 31.302734 39.361328 L 28.396484 37.419922 C 26.927484 36.436922 26.083984 34.609297 26.083984 32.404297 C 26.083984 31.859297 26.158687 31.319781 26.304688 30.800781 C 29.346688 34.158781 34.185047 37.612156 40.123047 37.910156 L 41.445312 37.976562 L 41.148438 36.6875 C 41.054437 36.2795 40.996094 35.491094 40.996094 34.996094 C 40.996094 31.691094 43.389391 29.091797 46.650391 29.091797 z M 13.519531 33.732422 A 1 1 0 0 0 12.519531 34.732422 A 1 1 0 0 0 13.519531 35.732422 A 1 1 0 0 0 14.519531 34.732422 A 1 1 0 0 0 13.519531 33.732422 z M 66.480469 33.732422 A 1 1 0 0 0 65.480469 34.732422 A 1 1 0 0 0 66.480469 35.732422 A 1 1 0 0 0 67.480469 34.732422 A 1 1 0 0 0 66.480469 33.732422 z M 13 39 A 1 1 0 0 0 12 40 A 1 1 0 0 0 13 41 A 1 1 0 0 0 14 40 A 1 1 0 0 0 13 39 z M 67 39 A 1 1 0 0 0 66 40 A 1 1 0 0 0 67 41 A 1 1 0 0 0 68 40 A 1 1 0 0 0 67 39 z M 13.519531 44.267578 A 1 1 0 0 0 12.519531 45.267578 A 1 1 0 0 0 13.519531 46.267578 A 1 1 0 0 0 14.519531 45.267578 A 1 1 0 0 0 13.519531 44.267578 z M 66.480469 44.267578 A 1 1 0 0 0 65.480469 45.267578 A 1 1 0 0 0 66.480469 46.267578 A 1 1 0 0 0 67.480469 45.267578 A 1 1 0 0 0 66.480469 44.267578 z M 15.054688 49.332031 A 1 1 0 0 0 14.054688 50.332031 A 1 1 0 0 0 15.054688 51.332031 A 1 1 0 0 0 16.054688 50.332031 A 1 1 0 0 0 15.054688 49.332031 z M 64.945312 49.332031 A 1 1 0 0 0 63.945312 50.332031 A 1 1 0 0 0 64.945312 51.332031 A 1 1 0 0 0 65.945312 50.332031 A 1 1 0 0 0 64.945312 49.332031 z M 17.550781 54 A 1 1 0 0 0 16.550781 55 A 1 1 0 0 0 17.550781 56 A 1 1 0 0 0 18.550781 55 A 1 1 0 0 0 17.550781 54 z M 62.449219 54 A 1 1 0 0 0 61.449219 55 A 1 1 0 0 0 62.449219 56 A 1 1 0 0 0 63.449219 55 A 1 1 0 0 0 62.449219 54 z M 20.908203 58.091797 A 1 1 0 0 0 19.908203 59.091797 A 1 1 0 0 0 20.908203 60.091797 A 1 1 0 0 0 21.908203 59.091797 A 1 1 0 0 0 20.908203 58.091797 z M 59.091797 58.091797 A 1 1 0 0 0 58.091797 59.091797 A 1 1 0 0 0 59.091797 60.091797 A 1 1 0 0 0 60.091797 59.091797 A 1 1 0 0 0 59.091797 58.091797 z M 25 61.449219 A 1 1 0 0 0 24 62.449219 A 1 1 0 0 0 25 63.449219 A 1 1 0 0 0 26 62.449219 A 1 1 0 0 0 25 61.449219 z M 55 61.449219 A 1 1 0 0 0 54 62.449219 A 1 1 0 0 0 55 63.449219 A 1 1 0 0 0 56 62.449219 A 1 1 0 0 0 55 61.449219 z M 29.667969 63.945312 A 1 1 0 0 0 28.667969 64.945312 A 1 1 0 0 0 29.667969 65.945312 A 1 1 0 0 0 30.667969 64.945312 A 1 1 0 0 0 29.667969 63.945312 z M 50.332031 63.945312 A 1 1 0 0 0 49.332031 64.945312 A 1 1 0 0 0 50.332031 65.945312 A 1 1 0 0 0 51.332031 64.945312 A 1 1 0 0 0 50.332031 63.945312 z M 34.732422 65.480469 A 1 1 0 0 0 33.732422 66.480469 A 1 1 0 0 0 34.732422 67.480469 A 1 1 0 0 0 35.732422 66.480469 A 1 1 0 0 0 34.732422 65.480469 z M 45.267578 65.480469 A 1 1 0 0 0 44.267578 66.480469 A 1 1 0 0 0 45.267578 67.480469 A 1 1 0 0 0 46.267578 66.480469 A 1 1 0 0 0 45.267578 65.480469 z M 40 66 A 1 1 0 0 0 39 67 A 1 1 0 0 0 40 68 A 1 1 0 0 0 41 67 A 1 1 0 0 0 40 66 z"/></svg>